<?xml version="1.0" standalone="no"?>
<!DOCTYPE svg PUBLIC "-//W3C//DTD SVG 20010904//EN"
 "http://www.w3.org/TR/2001/REC-SVG-20010904/DTD/svg10.dtd">
<svg version="1.0" xmlns="http://www.w3.org/2000/svg"
 width="700.000000pt" height="700.000000pt" viewBox="0 0 700.000000 700.000000"
 preserveAspectRatio="xMidYMid meet">
<metadata>
Created by potrace 1.14, written by Peter Selinger 2001-2017
</metadata>
<g transform="translate(0.000000,700.000000) scale(0.100000,-0.100000)"
fill="#000000" stroke="none">
<path d="M4283 6980 c-7 -11 -13 -27 -13 -36 0 -19 -25 -17 -145 11 -81 19
-426 28 -540 14 -132 -17 -150 -20 -275 -45 -248 -52 -552 -180 -702 -297 -21
-15 -79 -51 -129 -78 -167 -91 -289 -196 -432 -374 -76 -94 -171 -233 -231
-335 -41 -71 -180 -356 -221 -455 -20 -49 -41 -99 -46 -110 -31 -71 -60 -172
-64 -225 -11 -145 -61 -261 -154 -358 -99 -104 -157 -135 -179 -95 -7 11 -21
16 -47 15 -21 -1 -39 -3 -40 -4 -12 -17 -178 -261 -242 -357 -103 -153 -200
-349 -249 -506 -37 -114 -38 -127 -39 -255 0 -74 3 -150 7 -167 7 -30 5 -33
-15 -33 -35 0 -48 -14 -68 -74 l-19 -56 29 -59 c17 -32 35 -89 42 -127 13 -80
39 -136 82 -181 33 -35 30 -40 -32 -45 -46 -4 -49 -21 -6 -41 90 -43 165 -146
179 -247 8 -51 8 -223 1 -289 -29 -264 -153 -747 -231 -903 -18 -36 -22 -56
-18 -90 7 -48 50 -138 66 -138 6 0 -10 -22 -34 -48 -25 -27 -51 -58 -57 -70
-40 -75 11 -204 179 -457 104 -155 131 -215 131 -280 l0 -51 62 -13 c38 -7 90
-29 132 -54 121 -72 106 -69 203 -46 48 11 95 22 104 24 9 2 50 13 90 24 117
32 297 60 400 60 55 1 57 2 90 49 89 126 174 284 227 427 13 33 27 69 32 80
31 69 116 429 134 565 3 25 8 56 10 70 5 29 13 99 21 190 3 36 7 216 9 400 l2
335 254 52 c140 29 268 54 284 57 17 3 77 15 135 27 58 11 112 22 121 24 9 2
32 6 50 9 37 6 572 114 604 122 11 3 31 7 45 10 125 25 575 141 770 199 164
49 453 153 565 204 22 10 74 33 115 52 270 122 492 257 679 414 171 143 332
313 361 380 47 111 105 313 124 435 26 165 26 528 0 690 -3 19 -7 44 -8 55 -5
41 -19 103 -52 242 -40 167 -75 279 -134 428 -19 50 -197 409 -242 490 -142
253 -189 324 -252 374 -151 120 -351 228 -560 303 -61 22 -118 41 -126 43 -8
2 -31 9 -50 15 -51 16 -166 46 -235 61 -33 7 -64 14 -70 15 -5 1 -26 5 -45 8
-19 4 -46 8 -60 11 -14 2 -43 7 -65 10 -22 3 -51 7 -65 10 -14 2 -50 7 -80 10
-48 5 -57 3 -67 -15z m-180 -1815 c312 -36 640 -148 822 -280 l55 -40 -37 -34
c-48 -43 -150 -109 -228 -148 -82 -41 -164 -68 -330 -109 -148 -37 -277 -76
-388 -118 -63 -24 -91 -35 -177 -73 -48 -21 -230 -83 -230 -78 0 3 -11 0 -25
-5 -34 -13 -185 -38 -278 -45 -43 -4 -86 -8 -95 -10 -107 -22 -210 -55 -300
-96 l-62 -28 -46 45 c-25 24 -50 44 -54 44 -5 0 -18 15 -29 34 l-21 33 61 139
c34 76 86 208 115 293 30 85 59 161 66 168 24 30 125 101 198 141 162 89 380
148 623 168 39 4 73 8 75 9 4 4 237 -4 285 -10z"/>
</g>
</svg>
